<?xml version="1.0" encoding="utf-8"?>
<!-- Generator: Adobe Illustrator 26.5.0, SVG Export Plug-In . SVG Version: 6.00 Build 0)  -->
<svg version="1.1" id="Layer_1" xmlns="http://www.w3.org/2000/svg" xmlns:xlink="http://www.w3.org/1999/xlink" x="0px" y="0px"
	 viewBox="0 0 2000 2000" style="enable-background:new 0 0 2000 2000;" xml:space="preserve">
<style type="text/css">
	.st0{stroke:#2E56E8;stroke-width:33;stroke-miterlimit:10;}
</style>
<g>
	<g id="layer1_00000059989287903655749000000010607202917569251497_" transform="translate(-53.561588,-61.678922)">
		<path id="path5100_00000130616666938721500280000011704273282121721730_" d="M1053.56,161.68c-497.06,0-900,402.94-900,900l0,0
			c0,497.06,402.94,900,900,900s900-402.94,900-900C1953.56,564.62,1550.62,161.68,1053.56,161.68L1053.56,161.68z M1053.56,211.68
			c469.44,0,850,380.56,850,850s-380.56,850-850,850s-850-380.56-850-850C203.56,592.24,584.12,211.68,1053.56,211.68
			L1053.56,211.68z"/>
		<path id="circle5104_00000070830527619889061750000015495550505085374893_" d="M1053.56,261.68c-441.83,0-800,358.17-800,800
			c0,0,0,0,0,0c0,441.83,358.17,800,800,800s800-358.17,800-800C1853.56,619.85,1495.39,261.68,1053.56,261.68
			C1053.56,261.68,1053.56,261.68,1053.56,261.68z M1053.56,311.68c414.21,0,750,335.79,750,750v0c0,414.21-335.79,750-750,750l0,0
			c-414.21,0-750-335.79-750-750l0,0C303.56,647.47,639.35,311.68,1053.56,311.68L1053.56,311.68z"/>
		<path id="circle5109_00000164491966435608944870000017236660428905309351_" d="M1053.56,361.68c-386.6,0-700,313.4-700,700
			c0,386.6,313.4,700,700,700s700-313.4,700-700S1440.16,361.68,1053.56,361.68L1053.56,361.68z M1053.56,411.68
			c358.99,0,650,291.01,650,650v0c0,358.98-291.01,650-650,650c0,0,0,0,0,0c-358.99,0-650-291.01-650-650v0
			C403.56,702.69,694.58,411.68,1053.56,411.68L1053.56,411.68z"/>
		<path id="circle5114_00000107572790092712264360000003678481834768372133_" d="M1053.56,461.68c-331.37,0-600,268.63-600,600
			c0,331.37,268.63,600,600,600h0c331.37,0,600-268.63,600-600v0C1653.56,730.31,1384.93,461.68,1053.56,461.68z M1053.56,511.68
			c303.76,0,550,246.24,550,550l0,0c0,303.76-246.24,550-550,550c0,0,0,0,0,0c-303.76,0-550-246.24-550-550c0,0,0,0,0,0
			C503.56,757.92,749.8,511.68,1053.56,511.68C1053.56,511.68,1053.56,511.68,1053.56,511.68z"/>
		<path id="circle5119_00000134972165456002698160000014651345991528814779_" d="M1053.56,561.68c-276.14,0-500,223.86-500,500v0
			c0,276.14,223.86,500,500,500s500-223.86,500-500C1553.56,785.54,1329.7,561.68,1053.56,561.68L1053.56,561.68z M1053.56,611.68
			c248.53,0,450,201.47,450,450l0,0c0,248.53-201.47,450-450,450s-450-201.47-450-450S805.03,611.68,1053.56,611.68L1053.56,611.68z
			"/>
		<path id="circle5124_00000003097880393699264830000006464765535789449887_" d="M1053.56,661.68c-220.91,0-400,179.09-400,400
			s179.09,400,400,400h0c220.91,0,400-179.09,400-400v0C1453.56,840.76,1274.48,661.68,1053.56,661.68z M1053.56,711.68
			c193.3,0,350,156.7,350,350s-156.7,350-350,350s-350-156.7-350-350S860.26,711.68,1053.56,711.68z"/>
		<path id="circle5129_00000011753611091938923640000014179636657713754293_" d="M1053.56,761.68c-165.69,0-300,134.31-300,300l0,0
			c0,165.69,134.31,300,300,300l0,0c165.69,0,300-134.31,300-300l0,0C1353.56,895.99,1219.25,761.68,1053.56,761.68L1053.56,761.68z
			 M1053.56,811.68c138.07,0,250,111.93,250,250c0,0,0,0,0,0c0,138.07-111.93,250-250,250c0,0,0,0,0,0c-138.07,0-250-111.93-250-250
			c0,0,0,0,0,0C803.56,923.61,915.49,811.68,1053.56,811.68C1053.56,811.68,1053.56,811.68,1053.56,811.68z"/>
		<path id="circle5134_00000173135305055592632320000009543322829781088170_" d="M1053.56,861.68c-110.46,0-200,89.54-200,200
			s89.54,200,200,200s200-89.54,200-200S1164.02,861.68,1053.56,861.68z M1053.56,911.68c82.84,0,150,67.16,150,150
			s-67.16,150-150,150l0,0c-82.84,0-150-67.16-150-150l0,0C903.56,978.84,970.72,911.68,1053.56,911.68z"/>
		<path id="circle5139_00000072239419423001960040000016609021165481623199_" d="M1053.56,961.68c-55.23,0-100,44.77-100,100
			c0,0,0,0,0,0c0,55.23,44.77,100,100,100c0,0,0,0,0,0c55.23,0,100-44.77,100-100c0,0,0,0,0,0
			C1153.56,1006.45,1108.79,961.68,1053.56,961.68C1053.56,961.68,1053.56,961.68,1053.56,961.68z M1053.56,1011.68
			c27.61,0,50,22.39,50,50s-22.39,50-50,50c-27.61,0-50-22.39-50-50S1025.95,1011.68,1053.56,1011.68z"/>
	</g>
</g>
<line class="st0" x1="0" y1="0" x2="2000" y2="2000"/>
<line class="st0" x1="0" y1="2000" x2="2000" y2="0"/>
<line class="st0" x1="0" y1="1000" x2="2000" y2="1000"/>
<line class="st0" x1="1000" y1="0" x2="1000" y2="2000"/>
<path id="path5091_00000159470677920946649750000005259071665797113248_" d="M1000.22,3.78c-552.28,0-1000,447.72-1000,1000
	s447.72,1000,1000,1000s1000-447.72,1000-1000S1552.51,3.78,1000.22,3.78z M1000.22,53.78c524.67,0,950,425.33,950,950
	s-425.33,950-950,950s-950-425.33-950-950S475.55,53.78,1000.22,53.78z"/>
</svg>
