<?xml version="1.0" encoding="utf-8"?>
<!-- Generator: Adobe Illustrator 26.5.0, SVG Export Plug-In . SVG Version: 6.00 Build 0)  -->
<svg version="1.1" id="Layer_1" xmlns="http://www.w3.org/2000/svg" xmlns:xlink="http://www.w3.org/1999/xlink" x="0px" y="0px"
	 viewBox="0 0 200 200" style="enable-background:new 0 0 200 200;" xml:space="preserve">
<style type="text/css">
	.st0{display:none;}
	.st1{display:inline;fill:#FFFFFF;}
	.st2{display:inline;}
	.st3{font-family:'Bauhaus93';}
	.st4{font-size:42.1128px;}
	.st5{fill:none;stroke:#000000;stroke-miterlimit:10;}
</style>
<g class="st0">
	<circle class="st1" cx="100" cy="100" r="83.5"/>
	<path class="st2" d="M100,17c45.77,0,83,37.23,83,83s-37.23,83-83,83s-83-37.23-83-83S54.23,17,100,17 M100,16
		c-46.39,0-84,37.61-84,84s37.61,84,84,84s84-37.61,84-84S146.39,16,100,16L100,16z"/>
</g>
<text transform="matrix(1 0 0 1 47.5938 115.4707)" class="st0 st3 st4">WWW</text>
<g class="st0">
	<path class="st2" d="M100.82,46c-28.67,0-52,23.33-52,52s23.33,52,52,52s52-23.33,52-52S129.5,46,100.82,46z M88.15,54.12
		c30.22-7.92,57.25,14.67,57.25,43.76c0,22.82-16.65,41.58-38.4,44.82V111h12.72l2-13H107v-6.99c0-5.3,1.73-10.01,6.69-10.01H122
		V69.98c-1.38-0.18-4.28-0.59-9.78-0.59c-11.48,0-18.22,6.1-18.22,20V98H82v13h11v31.59c-25.57-4.21-43.86-29.93-35.78-58.23
		C61.43,69.58,73.28,58.02,88.15,54.12z"/>
</g>
<rect x="12" y="9.5" class="st5" width="179.5" height="179"/>
<g>
	<path d="M71.8,27C48.81,27,30,45.81,30,68.8v60.45C30,152.22,48.78,171,71.8,171h60.45c22.98,0,41.75-18.78,41.75-41.8V68.8
		c0-22.99-18.81-41.8-41.8-41.8H71.8z M71.8,38.08h60.4c16.97,0,30.72,13.75,30.72,30.72v60.4c0,17.05-13.67,30.72-30.68,30.72H71.8
		c-17.05,0-30.72-13.67-30.72-30.68V68.8C41.08,51.83,54.83,38.08,71.8,38.08z M146.63,48.56c-3.07,0-5.54,2.47-5.54,5.54
		c0,3.07,2.47,5.54,5.54,5.54c3.07,0,5.54-2.47,5.54-5.54C152.17,51.03,149.7,48.56,146.63,48.56z M102.32,59.64
		c-21.33,0-38.77,17.44-38.77,38.77s17.44,38.77,38.77,38.77s38.77-17.44,38.77-38.77S123.65,59.64,102.32,59.64z M102.32,70.71
		c15.36,0,27.69,12.33,27.69,27.69s-12.33,27.69-27.69,27.69s-27.69-12.33-27.69-27.69S86.96,70.71,102.32,70.71z"/>
</g>
</svg>
