<?xml version="1.0" encoding="utf-8"?>
<!-- Generator: Adobe Illustrator 26.5.0, SVG Export Plug-In . SVG Version: 6.00 Build 0)  -->
<svg version="1.1" id="Layer_1" xmlns="http://www.w3.org/2000/svg" xmlns:xlink="http://www.w3.org/1999/xlink" x="0px" y="0px"
	 viewBox="0 0 200 200" style="enable-background:new 0 0 200 200;" xml:space="preserve">
<style type="text/css">
	.st0{display:none;}
	.st1{display:inline;fill:#FFFFFF;}
	.st2{display:inline;}
	.st3{font-family:'Bauhaus93';}
	.st4{font-size:42.1128px;}
	.st5{fill:none;stroke:#000000;stroke-miterlimit:10;}
</style>
<g class="st0">
	<circle class="st1" cx="100" cy="100" r="83.5"/>
	<path class="st2" d="M100,17c45.77,0,83,37.23,83,83s-37.23,83-83,83s-83-37.23-83-83S54.23,17,100,17 M100,16
		c-46.39,0-84,37.61-84,84s37.61,84,84,84s84-37.61,84-84S146.39,16,100,16L100,16z"/>
</g>
<text transform="matrix(1 0 0 1 47.5938 115.4707)" class="st0 st3 st4">WWW</text>
<polygon class="st5" points="100.5,17.5 190.5,172.5 12,173.5 "/>
<g class="st0">
	<path class="st2" d="M100.82,46c-28.67,0-52,23.33-52,52s23.33,52,52,52s52-23.33,52-52S129.5,46,100.82,46z M88.15,54.12
		c30.22-7.92,57.25,14.67,57.25,43.76c0,22.82-16.65,41.58-38.4,44.82V111h12.72l2-13H107v-6.99c0-5.3,1.73-10.01,6.69-10.01H122
		V69.98c-1.38-0.18-4.28-0.59-9.78-0.59c-11.48,0-18.22,6.1-18.22,20V98H82v13h11v31.59c-25.57-4.21-43.86-29.93-35.78-58.23
		C61.43,69.58,73.28,58.02,88.15,54.12z"/>
</g>
<g>
	<path d="M143.85,104.3c-3.18,1.41-6.59,2.36-10.17,2.79c3.65-2.2,6.47-5.67,7.79-9.8c-3.43,2.03-7.22,3.5-11.25,4.3
		c-3.23-3.44-7.83-5.59-12.93-5.59c-9.78,0-17.71,7.93-17.71,17.71c0,1.38,0.16,2.74,0.46,4.03c-14.72-0.74-27.76-7.8-36.5-18.51
		c-1.53,2.62-2.4,5.67-2.4,8.92c0,6.14,3.12,11.56,7.88,14.73c-2.91-0.09-5.64-0.88-8.02-2.21c0,0.08,0,0.14,0,0.22
		c0,8.58,6.1,15.73,14.2,17.37c-1.49,0.41-3.04,0.62-4.66,0.62c-1.15,0-2.25-0.11-3.33-0.32c2.25,7.02,8.79,12.16,16.54,12.29
		c-6.05,4.76-13.69,7.58-21.99,7.58c-1.44,0-2.83-0.08-4.22-0.24c7.83,5.02,17.14,7.95,27.14,7.95c32.57,0,50.39-26.99,50.39-50.37
		c0-0.78-0.01-1.54-0.05-2.31C138.48,110.98,141.48,107.86,143.85,104.3"/>
</g>
</svg>
